<?xml version="1.0" encoding="UTF-8"?>
<svg id="Layer_2" data-name="Layer 2" xmlns="http://www.w3.org/2000/svg" xmlns:xlink="http://www.w3.org/1999/xlink" viewBox="0 0 505.49 512">
  <defs>
    <style>
      .cls-1 {
        fill: url(#linear-gradient-2);
      }

      .cls-2 {
        fill: url(#linear-gradient);
      }
    </style>
    <linearGradient id="linear-gradient" x1="260.69" y1="326.18" x2="107.72" y2="77.38" gradientUnits="userSpaceOnUse">
      <stop offset="0" stop-color="#8b3bf2"/>
      <stop offset="1" stop-color="#bf00ff"/>
    </linearGradient>
    <linearGradient id="linear-gradient-2" x1="398.28" y1="434.76" x2="280.94" y2="243.92" gradientUnits="userSpaceOnUse">
      <stop offset="0" stop-color="#ed1e79"/>
      <stop offset="1" stop-color="#febe00"/>
    </linearGradient>
  </defs>
  <g id="Layer_1-2" data-name="Layer 1">
    <g>
      <path class="cls-2" d="M325.61,97.36v80.78l-1.3.81-51.8,32.94v-104.21c0-4.35-1.46-8.36-3.96-11.53-.02-.05-.07-.07-.09-.12v-.02c-.46-.58-.95-1.13-1.46-1.64-3.4-3.4-8.1-5.51-13.31-5.51h-.16c-.32,0-.67.02-1,.05-1.09.05-2.18.21-3.19.49-.42.09-.83.21-1.25.32-.02,0-.07.02-.09.02-.3.09-.62.19-.93.32-5.6,2.11-9.93,6.81-11.53,12.66,0,.02-.02.05-.02.07-.42,1.55-.65,3.19-.65,4.88v148.03c-23.1,16.53-48.26,30.69-72.01,46.46l-29.95-18.73-.16-.09-43.86-27.41-.69-.44s-.07-.05-.12-.07c-2.82-1.74-5.97-2.57-9.05-2.57-5.79,0-11.46,2.89-14.74,8.17-5.05,8.08-2.64,18.73,5.42,23.82.02.02.07.05.09.07l16.46,10.28.09.07,25.42,15.88,33.82,21.13s.07.05.12.09v64.51c-34.61-19.24-77.64-53.15-111.85-74.14-39-28.45-45.3-86.52-13.61-122.75,6.11-6.37,14.05-12.48,22.66-18.4,26.41-18.12,61.18-18.45,88.03-1.02,19.51,12.66,39.6,25.69,51.36,33.33,1.16-34.58-1.41-114.37-.14-148.51,5.53-62.08,84.37-89.3,125.06-39.84,15.07,19.44,18.4,45.14,18.4,71.8Z"/>
      <path class="cls-1" d="M481.85,314.14c-7.92,8.24-18.24,14.07-27.68,20.39l-76.78,51.06c-5.76,3.77-11.46,7.92-17.45,11.3v-63.42l28.42-18.45.16-.09,18.31-11.9,1.71-1.09c1.69-1.09,3.4-2.2,5.09-3.31l1.71-1.11,16.55-10.76.69-.46c5.12-3.31,7.89-8.87,7.89-14.56,0-3.22-.9-6.5-2.8-9.42-5.05-7.8-15.28-10.18-23.22-5.58-.05.02-.07.02-.09.05-.39.21-.76.44-1.13.67-1.78,1.13-3.61,2.36-5.37,3.54l-10.44,6.78-.09.05-25.14,16.32-33.45,21.71-15,9.75c-.09.05-.19.12-.28.16v108.98c0,10.79.3,21.92-2.22,32.48-7.08,29.54-32.78,53.38-63.77,54.21-33.31,5.09-66.76-24.07-73.84-55.83-1.76-7.85-1.39-15.39-1.39-23.31v-102.84c2.55-1.99,5.39-3.61,8.15-5.3l13.54-8.61c10.44-6.62,20.65-13.56,30.92-20.42v97.73c0,1.27.14,2.52.39,3.75-.02.02,0,.05,0,.07,1.74,8.43,9.12,14.81,18.03,15h.39c10.39,0,18.82-8.43,18.82-18.82v-140.04l71.66-46.57,3.45-2.15,13.08-8.54.23-.14,17.78-11.55c26.48-17.2,60.69-17.13,87.01.32.14.09.3.21.44.3,44.54,28.98,53.31,90.99,15.69,129.67Z"/>
    </g>
  </g>
</svg>