<?xml version="1.0" encoding="UTF-8"?>
<svg id="Layer_2" data-name="Layer 2" xmlns="http://www.w3.org/2000/svg" xmlns:xlink="http://www.w3.org/1999/xlink" viewBox="0 0 776.59 221.19">
  <defs>
    <style>
      .cls-1 {
        fill: url(#linear-gradient-2);
      }

      .cls-2 {
        fill: #f9f9f9;
      }

      .cls-3 {
        fill: url(#linear-gradient);
      }
    </style>
    <linearGradient id="linear-gradient" x1="112.62" y1="140.92" x2="46.54" y2="33.43" gradientUnits="userSpaceOnUse">
      <stop offset="0" stop-color="#8b3bf2"/>
      <stop offset="1" stop-color="#bf00ff"/>
    </linearGradient>
    <linearGradient id="linear-gradient-2" x1="172.06" y1="187.82" x2="121.37" y2="105.38" gradientUnits="userSpaceOnUse">
      <stop offset="0" stop-color="#ed1e79"/>
      <stop offset="1" stop-color="#febe00"/>
    </linearGradient>
  </defs>
  <g id="Layer_1-2" data-name="Layer 1">
    <g>
      <path class="cls-3" d="M140.67,42.06v34.9l-.56.35-22.38,14.23v-45.02c0-1.88-.63-3.61-1.71-4.98-.01-.02-.03-.03-.04-.05h0c-.2-.26-.41-.5-.63-.72-1.47-1.47-3.5-2.38-5.75-2.38h-.07c-.14,0-.29.01-.43.02-.47.02-.94.09-1.38.21-.18.04-.36.09-.54.14-.01,0-.03.01-.04.01-.13.04-.27.08-.4.14-2.42.91-4.29,2.94-4.98,5.47,0,.01,0,.02,0,.03-.18.67-.28,1.38-.28,2.11v63.95c-9.98,7.14-20.85,13.26-31.11,20.07l-12.94-8.09-.07-.04-18.95-11.84-.3-.19s-.03-.02-.05-.03c-1.22-.75-2.58-1.11-3.91-1.11-2.5,0-4.95,1.25-6.37,3.53-2.18,3.49-1.14,8.09,2.34,10.29.01,0,.03.02.04.03l7.11,4.44.04.03,10.98,6.86,14.61,9.13s.03.02.05.04v27.87c-14.95-8.31-33.54-22.96-48.32-32.03-16.85-12.29-19.57-37.38-5.88-53.03,2.64-2.75,6.07-5.39,9.79-7.95,11.41-7.83,26.43-7.97,38.03-.44,8.43,5.47,17.11,11.1,22.19,14.4.5-14.94-.61-49.41-.06-64.16,2.39-26.82,36.45-38.58,54.03-17.21,6.51,8.4,7.95,19.5,7.95,31.02Z"/>
      <g>
        <path class="cls-2" d="M315.73,75.45v70.3h-13.76v-45.6l-19.83,32.62-1.62.06-19.73-32.5v45.42h-13.86v-70.3h14.26l20.16,33.2,20.06-33.2h14.32Z"/>
        <path class="cls-2" d="M365.94,138.06c-5.16,5.12-11.45,7.68-18.88,7.68s-13.71-2.56-18.83-7.68c-5.12-5.12-7.68-11.4-7.68-18.83s2.56-13.71,7.68-18.83c5.12-5.12,11.4-7.68,18.83-7.68s13.72,2.56,18.88,7.68c5.15,5.12,7.73,11.4,7.73,18.83s-2.58,13.71-7.73,18.83ZM337.37,129.18c2.58,2.61,5.81,3.92,9.69,3.92s7.13-1.3,9.74-3.92c2.61-2.61,3.92-5.93,3.92-9.94s-1.3-7.33-3.92-9.94c-2.61-2.61-5.86-3.92-9.74-3.92s-7.11,1.31-9.69,3.92c-2.58,2.61-3.87,5.93-3.87,9.94s1.29,7.33,3.87,9.94Z"/>
        <path class="cls-2" d="M405.72,94.13c5.49,0,10.03,1.84,13.61,5.52,3.58,3.68,5.37,8.77,5.37,15.26v30.83h-12.96v-29.23c0-3.35-.9-5.91-2.71-7.68-1.81-1.78-4.22-2.66-7.23-2.66-3.35,0-6.03,1.04-8.03,3.11-2.01,2.08-3.01,5.19-3.01,9.34v27.12h-12.96v-50.22h12.96v5.62c3.15-4.69,8.14-7.03,14.96-7.03Z"/>
        <path class="cls-2" d="M441.67,124.56c1.74,6.29,6.46,9.44,14.16,9.44,4.95,0,8.7-1.67,11.25-5.02l10.44,6.03c-4.96,7.16-12.25,10.75-21.89,10.75-8.3,0-14.96-2.51-19.99-7.53-5.02-5.02-7.53-11.35-7.53-18.98s2.48-13.88,7.43-18.93c4.96-5.05,11.32-7.58,19.08-7.58,7.36,0,13.44,2.54,18.23,7.63,4.79,5.09,7.18,11.38,7.18,18.88,0,1.67-.17,3.45-.5,5.33h-37.86ZM441.47,114.52h25.61c-.74-3.42-2.26-5.96-4.57-7.63-2.31-1.67-4.94-2.51-7.88-2.51-3.48,0-6.36.89-8.64,2.66-2.28,1.78-3.78,4.27-4.52,7.48Z"/>
        <path class="cls-2" d="M514.78,92.72h13.86l-18.31,50.3c-2.61,7.17-6.07,12.38-10.38,15.63-4.31,3.25-9.68,4.71-16.1,4.37v-12.05c3.48.06,6.24-.67,8.29-2.21,2.04-1.54,3.67-4.02,4.87-7.43l-20.59-48.61h14.16l13.1,33.75,11.11-33.75Z"/>
        <path class="cls-2" d="M567.79,145.75c-6.96,0-12.82-1.56-17.57-4.67-4.75-3.12-8.1-7.35-10.04-12.7l11.85-6.93c2.75,7.16,8.14,10.75,16.17,10.75,3.88,0,6.73-.7,8.54-2.11,1.81-1.41,2.71-3.18,2.71-5.32,0-2.48-1.11-4.4-3.32-5.78-2.21-1.37-6.16-2.86-11.85-4.47-3.15-.94-5.81-1.88-7.98-2.81-2.18-.94-4.35-2.19-6.53-3.77-2.18-1.57-3.84-3.56-4.97-5.97-1.14-2.41-1.71-5.22-1.71-8.44,0-6.36,2.26-11.43,6.78-15.22,4.52-3.78,9.96-5.67,16.32-5.67,5.69,0,10.7,1.39,15.01,4.17,4.32,2.78,7.68,6.65,10.1,11.6l-11.65,6.73c-2.82-6.03-7.3-9.04-13.46-9.04-2.88,0-5.14.65-6.78,1.96-1.64,1.31-2.46,3-2.46,5.07,0,2.21.92,4,2.76,5.37,1.84,1.37,5.37,2.86,10.59,4.47,2.14.67,3.77,1.19,4.87,1.56,1.1.37,2.61.94,4.52,1.71,1.91.77,3.38,1.49,4.42,2.16s2.23,1.57,3.57,2.71c1.34,1.14,2.36,2.31,3.06,3.52.7,1.2,1.31,2.66,1.81,4.37.5,1.71.75,3.57.75,5.57,0,6.49-2.36,11.65-7.08,15.47-4.72,3.82-10.86,5.72-18.43,5.72Z"/>
        <path class="cls-2" d="M651.25,95.53h12.43l-14.64,50.22h-12.7l-9.5-30.43-9.5,30.43h-12.7l-14.76-50.22h13.7l8.6,30.83,9.14-30.83h12.26l9.14,30.94,8.51-30.94Z"/>
        <path class="cls-2" d="M703.17,94.13h12.95v50.22h-12.95v-5.93c-3.89,4.89-9.34,7.33-16.37,7.33s-12.43-2.56-17.22-7.68c-4.78-5.12-7.18-11.4-7.18-18.83s2.39-13.71,7.18-18.83c4.79-5.12,10.53-7.68,17.22-7.68,7.03,0,12.49,2.44,16.37,7.33v-5.93ZM679.27,129.43c2.61,2.64,5.93,3.97,9.94,3.97s7.35-1.32,9.99-3.97c2.64-2.64,3.97-6.04,3.97-10.2s-1.32-7.55-3.97-10.19-5.97-3.97-9.99-3.97-7.33,1.32-9.94,3.97c-2.62,2.64-3.92,6.04-3.92,10.19s1.3,7.55,3.92,10.2Z"/>
        <path class="cls-2" d="M752.08,92.72c6.76,0,12.54,2.56,17.32,7.68,4.79,5.12,7.18,11.4,7.18,18.83s-2.39,13.71-7.18,18.83c-4.78,5.12-10.56,7.68-17.32,7.68s-12.45-2.44-16.27-7.33v26.01h-12.95v-70.3h12.95v5.93c3.82-4.89,9.24-7.33,16.27-7.33ZM739.73,129.43c2.61,2.64,5.93,3.97,9.94,3.97s7.35-1.32,9.99-3.97c2.65-2.64,3.97-6.04,3.97-10.2s-1.32-7.55-3.97-10.19c-2.64-2.64-5.97-3.97-9.99-3.97s-7.33,1.32-9.94,3.97-3.92,6.04-3.92,10.19,1.3,7.55,3.92,10.2Z"/>
      </g>
      <path class="cls-1" d="M208.17,135.71c-3.42,3.56-7.88,6.08-11.96,8.81l-33.17,22.06c-2.49,1.63-4.95,3.42-7.54,4.88v-27.4l12.28-7.97.07-.04,7.91-5.14.74-.47c.73-.47,1.47-.95,2.2-1.43l.74-.48,7.15-4.65.3-.2c2.21-1.43,3.41-3.83,3.41-6.29,0-1.39-.39-2.81-1.21-4.07-2.18-3.37-6.6-4.4-10.03-2.41-.02.01-.03.01-.04.02-.17.09-.33.19-.49.29-.77.49-1.56,1.02-2.32,1.53l-4.51,2.93-.04.02-10.86,7.05-14.45,9.38-6.48,4.21s-.08.05-.12.07v47.08c0,4.66.13,9.47-.96,14.03-3.06,12.76-14.16,23.06-27.55,23.42-14.39,2.2-28.84-10.4-31.9-24.12-.76-3.39-.6-6.65-.6-10.07v-44.43c1.1-.86,2.33-1.56,3.52-2.29l5.85-3.72c4.51-2.86,8.92-5.86,13.36-8.82v42.22c0,.55.06,1.09.17,1.62,0,.01,0,.02,0,.03.75,3.64,3.94,6.4,7.79,6.48h.17c4.49,0,8.13-3.64,8.13-8.13v-60.5l30.96-20.12,1.49-.93,5.65-3.69.1-.06,7.68-4.99c11.44-7.43,26.22-7.4,37.59.14.06.04.13.09.19.13,19.24,12.52,23.03,39.31,6.78,56.02Z"/>
    </g>
  </g>
</svg>